# File created by Blade
# Date/Time:  Tue Jan 27 19:38:14 2015
# Frame Rate: 120.000 fps
#------------------------------------------------------
:FULLY-SPECIFIED
:DEGREES
2886
root 4.874201 32.337170 2.342166 -2.903520 -9.975777 -0.467355
Spine 2.801220 -9.207970 1.827012
Head 11.384958 13.347786 4.913559
LeftShoulder -12.167950 -0.336072 29.110322
LeftArm -3.816740 35.795927 -103.877807
LeftForeArm 3.880246 0.000000 13.737548
LeftHand 9.890114 -0.000000 -4.681165
LeftHandThumb1 -26.253704 0.000000 33.147579
RightShoulder -25.810725 -19.860340 -19.653267
RightArm -4.213002 38.817217 96.403739
RightForeArm -1.455654 0.000000 133.075138
RightHand 27.811242 -0.000000 -35.149515
RightHandThumb1 -24.326973 -0.000000 -32.862282
LeftUpLeg 9.176498 4.699094 -3.104442
LeftLeg 1.561409 -0.000000 -0.000000
LeftFoot -18.776200 15.593662 -21.884587
LeftToeBase 16.762402 -0.000000 -0.000000
RightUpLeg 4.296389 0.721196 3.317396
RightLeg 5.429613 -0.000000 -0.000000
RightFoot -11.962674 -11.665424 13.076739
RightToeBase 8.843054 -0.000000 -0.000000
2887
root 4.883416 32.338815 2.340527 -2.923805 -10.078254 -0.486705
Spine 2.837542 -8.893042 1.982760
Head 11.185378 13.048480 4.854930
LeftShoulder -12.099401 -0.436173 28.977261
LeftArm -3.622561 35.692010 -103.674866
LeftForeArm 3.987308 -0.000000 13.650928
LeftHand 9.897724 -0.000000 -4.440358
LeftHandThumb1 -26.253704 0.000000 33.147579
RightShoulder -25.704752 -19.883902 -20.020038
RightArm -3.569715 39.460103 96.200900
RightForeArm -3.036911 -0.000000 136.904517
RightHand 28.256550 -0.000000 -35.039455
RightHandThumb1 -24.326973 -0.000000 -32.862282
LeftUpLeg 9.176760 4.698450 -3.110227
LeftLeg 1.617635 -0.000000 -0.000000
LeftFoot -18.841913 15.659353 -21.935858
LeftToeBase 16.755559 -0.000000 -0.000000
RightUpLeg 4.294054 0.723204 3.309439
RightLeg 5.444840 -0.000000 -0.000000
RightFoot -11.902725 -11.558994 13.072656
RightToeBase 8.806960 -0.000000 -0.000000
2888
root 4.892802 32.339635 2.335424 -2.931970 -10.171967 -0.488867
Spine 2.881660 -8.597515 2.099287
Head 10.942213 12.850305 4.752273
LeftShoulder -12.096111 -0.584938 28.866634
LeftArm -3.489435 35.442048 -103.480008
LeftForeArm 4.111073 -0.000000 13.589830
LeftHand 9.892557 -0.000000 -4.267947
LeftHandThumb1 -26.253704 0.000000 33.147579
RightShoulder -25.580380 -19.840309 -20.449656
RightArm -3.028493 40.126088 95.920337
RightForeArm -4.758246 -0.000000 140.431053
RightHand 29.007913 0.000000 -35.504342
RightHandThumb1 -24.326973 -0.000000 -32.862282
LeftUpLeg 9.157305 4.749781 -3.123615
LeftLeg 1.666738 -0.000000 -0.000000
LeftFoot -18.875301 15.680290 -21.960890
LeftToeBase 16.724922 -0.000000 -0.000000
RightUpLeg 4.271735 0.754656 3.294561
RightLeg 5.460078 -0.000000 -0.000000
RightFoot -11.864014 -11.511816 13.069152
RightToeBase 8.761047 -0.000000 -0.000000
2889
root 4.899961 32.340496 2.331238 -2.940870 -10.227960 -0.485791
Spine 2.936779 -8.309605 2.175232
Head 10.641284 12.611111 4.714075
LeftShoulder -12.105807 -0.686566 28.773927
LeftArm -3.269691 34.946957 -103.274607
LeftForeArm 4.351965 -0.000000 13.450708
LeftHand 10.011244 -0.000000 -4.191678
LeftHandThumb1 -26.253704 0.000000 33.147579
RightShoulder -25.495612 -19.879102 -20.843116
RightArm -2.401961 40.751639 95.785899
RightForeArm -6.916732 -0.000000 143.711858
RightHand 29.342469 -0.000000 -36.826473
RightHandThumb1 -24.326973 -0.000000 -32.862282
LeftUpLeg 9.143177 4.762950 -3.138640
LeftLeg 1.698885 -0.000000 -0.000000
LeftFoot -18.978152 15.672162 -22.146606
LeftToeBase 16.994067 -0.000000 -0.000000
RightUpLeg 4.262696 0.769414 3.279294
RightLeg 5.463623 -0.000000 -0.000000
RightFoot -11.848850 -11.482708 13.061423
RightToeBase 8.835148 -0.000000 -0.000000
2890
root 4.905454 32.340967 2.325629 -2.941507 -10.236890 -0.481926
Spine 2.969208 -8.022491 2.235168
Head 10.367190 12.240775 4.693426
LeftShoulder -12.049665 -0.730354 28.694215
LeftArm -2.997737 34.449950 -103.058472
LeftForeArm 4.429957 0.000000 13.360381
LeftHand 9.986480 -0.000000 -3.992113
LeftHandThumb1 -26.253704 0.000000 33.147579
RightShoulder -25.512668 -19.987694 -21.193791
RightArm -1.729801 41.397290 95.690287
RightForeArm -8.720870 -0.000000 146.638288
RightHand 30.017249 -0.000000 -38.092649
RightHandThumb1 -24.326973 -0.000000 -32.862282
LeftUpLeg 9.108862 4.766962 -3.153159
LeftLeg 1.747766 -0.000000 -0.000000
LeftFoot -18.915600 15.707485 -22.003758
LeftToeBase 16.761163 -0.000000 -0.000000
RightUpLeg 4.254212 0.725315 3.261975
RightLeg 5.452774 -0.000000 -0.000000
RightFoot -11.816330 -11.445602 13.035449
RightToeBase 8.798456 -0.000000 -0.000000
2891
root 4.911041 32.341131 2.317824 -2.946600 -10.267787 -0.480494
Spine 3.030565 -7.794973 2.274203
Head 10.060449 11.941141 4.702344
LeftShoulder -12.065027 -0.753121 28.624635
LeftArm -2.765111 33.862569 -102.861645
LeftForeArm 4.467002 -0.000000 13.308603
LeftHand 10.033380 0.000000 -3.878907
LeftHandThumb1 -26.253704 0.000000 33.147579
RightShoulder -25.546941 -20.113508 -21.506266
RightArm -0.925595 42.102293 95.762124
RightForeArm -10.542929 0.000000 149.111485
RightHand 30.774701 -0.000000 -39.405784
RightHandThumb1 -24.326973 -0.000000 -32.862282
LeftUpLeg 9.098019 4.814134 -3.154845
LeftLeg 1.748583 -0.000000 -0.000000
LeftFoot -18.988510 15.655958 -22.173762
LeftToeBase 17.013243 -0.000000 -0.000000
RightUpLeg 4.233930 0.765540 3.254651
RightLeg 5.464023 -0.000000 -0.000000
RightFoot -11.808715 -11.451113 13.043097
RightToeBase 8.789353 -0.000000 -0.000000
2892
root 4.915540 32.341509 2.313059 -2.919165 -10.224589 -0.471608
Spine 3.062309 -7.549206 2.290452
Head 9.697801 11.632928 4.685299
LeftShoulder -12.032426 -0.790538 28.575060
LeftArm -2.582678 33.188843 -102.693548
LeftForeArm 4.508628 -0.000000 13.349866
LeftHand 10.107582 -0.000000 -3.735249
LeftHandThumb1 -26.253704 0.000000 33.147579
RightShoulder -25.770534 -20.128563 -21.880718
RightArm -0.443690 42.984437 95.791293
RightForeArm -12.068641 -0.000000 150.896200
RightHand 32.214943 -0.000000 -39.743901
RightHandThumb1 -24.326973 -0.000000 -32.862282
LeftUpLeg 9.050277 4.817571 -3.170898
LeftLeg 1.760315 -0.000000 -0.000000
LeftFoot -18.887869 15.655381 -22.019920
LeftToeBase 16.706346 -0.000000 -0.000000
RightUpLeg 4.212050 0.707676 3.235555
RightLeg 5.438056 -0.000000 -0.000000
RightFoot -11.794366 -11.434313 13.043767
RightToeBase 8.723229 -0.000000 -0.000000
2893
root 4.915986 32.342478 2.306827 -2.889175 -10.137957 -0.465313
Spine 3.095567 -7.454255 2.229167
Head 9.371906 11.522978 4.781213
LeftShoulder -12.066762 -0.820256 28.599150
LeftArm -2.519901 32.432084 -102.603708
LeftForeArm 4.599008 -0.000000 13.501192
LeftHand 10.061733 -0.000000 -3.461497
LeftHandThumb1 -26.253704 0.000000 33.147579
RightShoulder -25.911876 -20.083235 -22.189007
RightArm 0.054908 43.103299 95.804327
RightForeArm -15.911779 0.000000 152.273897
RightHand 30.562923 -0.000000 -44.621856
RightHandThumb1 -24.326973 -0.000000 -32.862282
LeftUpLeg 9.002410 4.783037 -3.174553
LeftLeg 1.754985 -0.000000 -0.000000
LeftFoot -18.846729 15.622094 -21.987667
LeftToeBase 16.719584 -0.000000 -0.000000
RightUpLeg 4.196639 0.646107 3.227460
RightLeg 5.400686 -0.000000 -0.000000
RightFoot -11.787740 -11.461157 13.041807
RightToeBase 8.816654 -0.000000 -0.000000
2894
root 4.918294 32.342396 2.302156 -2.856148 -10.010476 -0.446343
Spine 3.119137 -7.453802 2.128254
Head 9.042882 11.348364 4.957739
LeftShoulder -12.132103 -0.775626 28.637848
LeftArm -2.439344 31.652370 -102.519773
LeftForeArm 4.673640 0.000000 13.694349
LeftHand 9.995970 -0.000000 -3.247467
LeftHandThumb1 -26.253704 0.000000 33.147579
RightShoulder -26.141348 -19.777403 -22.598541
RightArm 0.132194 43.628427 95.706346
RightForeArm -18.088969 -0.000000 152.728518
RightHand 30.243912 0.000000 -46.866131
RightHandThumb1 -24.326973 -0.000000 -32.862282
LeftUpLeg 8.953258 4.709483 -3.199863
LeftLeg 1.734712 -0.000000 -0.000000
LeftFoot -18.807606 15.603342 -21.962334
LeftToeBase 16.723537 -0.000000 -0.000000
RightUpLeg 4.214912 0.629938 3.210117
RightLeg 5.299927 -0.000000 -0.000000
RightFoot -11.790161 -11.549309 13.090390
RightToeBase 8.805027 -0.000000 -0.000000
